<svg width="25" height="30" viewBox="0 0 25 30" fill="none" xmlns="http://www.w3.org/2000/svg">
<path d="M18.975 0.524975V5.66248C18.975 5.84998 18.8625 6.03747 18.7125 6.11247L0 16.4625V10.425C0 10.2 0.1125 10.0125 0.3 9.89997L18.1125 0.0749751C18.4875 -0.150025 18.975 0.112475 18.975 0.524975Z" fill="url(#paint0_linear_1_54)"/>
<path d="M11.1375 17.0625L1.05 10.7625C1.05 10.7625 0.5625 10.5 0.525 10.2C0.525 9.89997 0.7875 9.67497 0.7875 9.67497C0.7875 9.67497 0.4875 9.86247 0.3 9.93747C0.1125 10.05 0.0375 10.2 0.0375 10.2C0 10.275 0 10.35 0 10.425V17.2125C0 17.4 0.1125 17.5875 0.2625 17.6625L5.325 20.8125C5.5125 20.925 5.7375 20.925 5.9625 20.8125L11.1375 17.9625C11.475 17.775 11.475 17.2875 11.1375 17.0625Z" fill="#FF0055"/>
<path d="M5.625 29.475V24.3375C5.625 24.15 5.7375 23.9625 5.8875 23.8875L24.6 13.5375V19.575C24.6 19.8 24.4875 19.9875 24.3 20.1L6.4875 29.925C6.1125 30.15 5.625 29.8875 5.625 29.475Z" fill="url(#paint1_linear_1_54)"/>
<path d="M13.4624 12.9375L23.5499 19.275C23.5499 19.275 24.0374 19.5375 24.0749 19.8375C24.0749 20.1375 23.8124 20.3625 23.8124 20.3625C23.8124 20.3625 24.1124 20.175 24.2999 20.1C24.4874 19.9875 24.5624 19.8375 24.5624 19.8375C24.5999 19.7625 24.5999 19.6875 24.5999 19.6125V12.825C24.5999 12.6375 24.4874 12.45 24.3374 12.375L19.2749 9.225C19.0874 9.1125 18.8624 9.1125 18.6374 9.225L13.4999 12.0375C13.1999 12.1875 13.1624 12.7125 13.4624 12.9375Z" fill="#FF0055"/>
<defs>
<linearGradient id="paint0_linear_1_54" x1="17.5227" y1="3.57785" x2="-3.80228" y2="15.3975" gradientUnits="userSpaceOnUse">
<stop offset="0.2181" stop-color="#E0004B"/>
<stop offset="0.5398" stop-color="#DF024B"/>
<stop offset="0.7254" stop-color="#DB0B4B"/>
<stop offset="0.8759" stop-color="#D5194C"/>
<stop offset="1" stop-color="#CC2B4D"/>
</linearGradient>
<linearGradient id="paint1_linear_1_54" x1="7.09076" y1="26.422" x2="28.4158" y2="14.6024" gradientUnits="userSpaceOnUse">
<stop offset="0.2181" stop-color="#E0004B"/>
<stop offset="0.5398" stop-color="#DF024B"/>
<stop offset="0.7254" stop-color="#DB0B4B"/>
<stop offset="0.8759" stop-color="#D5194C"/>
<stop offset="1" stop-color="#CC2B4D"/>
</linearGradient>
</defs>
</svg>
