<svg width="134" height="30" viewBox="0 0 134 30" fill="none" xmlns="http://www.w3.org/2000/svg">
<g clip-path="url(#clip0_1_37)">
<path d="M39.15 14.8125C39.075 14.625 38.925 14.4 38.775 14.2125C38.5875 14.025 38.4375 13.875 38.325 13.725C38.175 13.575 37.9875 13.4625 37.725 13.3125C37.4625 13.1625 37.2375 13.05 37.0875 12.975C36.9375 12.9 36.675 12.7875 36.375 12.675C36.0375 12.5625 35.8125 12.45 35.6625 12.4125C35.5125 12.375 35.25 12.2625 34.875 12.15C33.8625 11.8125 33.15 11.5125 32.7375 11.2125C32.325 10.9125 32.1375 10.5 32.1375 9.9375C32.1375 9.3375 32.3625 8.8875 32.775 8.55C33.1875 8.2125 33.7875 8.025 34.4625 8.025C35.8875 8.025 36.8625 8.6625 37.425 10.0125L37.4625 10.125L39.1125 9.1875L39.075 9.1125C38.6625 8.2125 38.0625 7.5 37.275 6.975C36.4875 6.45 35.55 6.15 34.4625 6.15C33.2625 6.15 32.25 6.4875 31.425 7.2C30.6 7.9125 30.1875 8.85 30.1875 10.0125C30.1875 10.5 30.2625 10.95 30.45 11.3625C30.6375 11.7375 30.825 12.075 31.05 12.3C31.275 12.525 31.6125 12.7875 32.0625 13.0125C32.5125 13.2375 32.8875 13.3875 33.1875 13.5C33.4875 13.6125 33.9 13.7625 34.4625 13.9125C35.5875 14.25 36.375 14.5875 36.8625 14.925C37.3125 15.225 37.5375 15.675 37.5375 16.275C37.5375 16.875 37.3125 17.325 36.8625 17.7C36.4125 18.075 35.7 18.225 34.8375 18.225C33 18.225 31.875 17.4375 31.35 15.8625L31.3125 15.75L29.625 16.725L29.6625 16.8C30.0375 17.85 30.675 18.675 31.575 19.2375C32.475 19.8375 33.5625 20.1375 34.8375 20.1375C36.225 20.1375 37.3875 19.7625 38.25 19.0875C39.1125 18.375 39.5625 17.4 39.5625 16.2375C39.5625 15.9375 39.525 15.675 39.4875 15.4125C39.3 15.225 39.225 15 39.15 14.8125Z" fill="#170426"/>
<path d="M47.55 15.4125C47.55 16.4625 47.2875 17.2125 46.8 17.7375C46.3125 18.225 45.675 18.4875 44.85 18.4875C44.1375 18.4875 43.575 18.3 43.2 17.8875C42.7875 17.475 42.6 16.9125 42.6 16.1625V10.275H40.7625V16.2375C40.7625 17.475 41.1 18.45 41.8125 19.1625C42.4875 19.875 43.425 20.25 44.55 20.25C45.8625 20.25 46.8375 19.7625 47.55 18.825V19.9875H49.3875V10.275H47.55V15.4125Z" fill="#170426"/>
<path d="M56.8876 10.0125C55.3876 10.0125 54.2251 10.575 53.3626 11.7V10.275H51.5251V23.8125H53.3626V18.5625C54.1876 19.6875 55.3876 20.25 56.8876 20.25C58.2376 20.25 59.4001 19.7625 60.3751 18.75C61.3126 17.775 61.8001 16.5375 61.8001 15.1125C61.8001 13.6875 61.3126 12.4875 60.3751 11.475C59.4376 10.5 58.2376 10.0125 56.8876 10.0125ZM56.7001 11.8125C57.6376 11.8125 58.4251 12.15 59.0251 12.75C59.6626 13.3875 59.9626 14.175 59.9626 15.1125C59.9626 16.05 59.6626 16.8375 59.0251 17.475C58.3876 18.1125 57.6001 18.4125 56.7001 18.4125C55.7626 18.4125 54.9751 18.075 54.3376 17.475C53.7001 16.8375 53.4001 16.05 53.4001 15.1125C53.4001 14.175 53.7001 13.3875 54.3376 12.75C54.9751 12.1125 55.7626 11.8125 56.7001 11.8125Z" fill="#170426"/>
<path d="M67.9875 10.0125C66.4875 10.0125 65.25 10.5 64.3125 11.475C63.375 12.45 62.8875 13.6875 62.8875 15.1125C62.8875 16.575 63.375 17.8125 64.35 18.7875C65.325 19.7625 66.5625 20.25 68.1 20.25C69.975 20.25 71.4375 19.5 72.375 18.0375L72.4125 17.9625L70.8375 17.0625L70.8 17.1375C70.2375 18.0375 69.3375 18.4875 68.1375 18.4875C67.275 18.4875 66.525 18.2625 65.925 17.8125C65.3625 17.3625 64.9875 16.7625 64.8 16.0125H72.75V15.9375C72.7875 15.675 72.825 15.4125 72.825 15.1875C72.825 13.8 72.375 12.5625 71.475 11.5875C70.575 10.5375 69.4125 10.0125 67.9875 10.0125ZM67.9875 11.775C68.7375 11.775 69.375 12 69.9375 12.45C70.4625 12.9 70.8 13.5375 70.95 14.325H64.8C64.95 13.575 65.2875 12.9375 65.85 12.4875C66.375 12 67.125 11.775 67.9875 11.775Z" fill="#170426"/>
<path d="M76.1999 11.5875V10.275H74.3624V19.9875H76.1999V14.85C76.1999 13.8375 76.4999 13.0875 77.0249 12.6375C77.5874 12.1875 78.2624 11.9625 79.0499 12H79.1624V10.0875H79.0874C77.7374 10.0875 76.7624 10.575 76.1999 11.5875Z" fill="#170426"/>
<path d="M86.8874 6.18753C84.9374 6.18753 83.2499 6.86253 81.9374 8.21253C80.5874 9.56253 79.9124 11.25 79.9124 13.2C79.9124 15.15 80.5874 16.8 81.9374 18.15C83.2874 19.5 84.9374 20.2125 86.8874 20.2125C88.8374 20.2125 90.5249 19.5375 91.8749 18.15C93.2249 16.8 93.8999 15.1125 93.8999 13.2C93.8999 11.25 93.2249 9.56253 91.8749 8.21253C90.4874 6.90003 88.8374 6.18753 86.8874 6.18753ZM86.8874 18.3C85.4624 18.3 84.2624 17.8125 83.2874 16.8375C82.3124 15.8625 81.8249 14.625 81.8249 13.2C81.8249 11.775 82.3124 10.5375 83.2874 9.56253C84.2624 8.58753 85.4624 8.10003 86.8874 8.10003C88.3124 8.10003 89.5124 8.58753 90.4874 9.56253C91.4624 10.5375 91.9499 11.775 91.9499 13.2C91.9499 14.625 91.4624 15.8625 90.4874 16.8375C89.5124 17.8125 88.3124 18.3 86.8874 18.3Z" fill="#170426"/>
<path d="M100.838 10.0125C99.3375 10.0125 98.175 10.575 97.3125 11.7V10.275H95.475V23.8125H97.3125V18.5625C98.1375 19.6875 99.3375 20.25 100.838 20.25C102.188 20.25 103.35 19.7625 104.325 18.75C105.263 17.775 105.75 16.5375 105.75 15.1125C105.75 13.6875 105.263 12.4875 104.325 11.475C103.35 10.5 102.188 10.0125 100.838 10.0125ZM100.613 11.8125C101.55 11.8125 102.338 12.15 102.938 12.75C103.575 13.3875 103.875 14.175 103.875 15.1125C103.875 16.05 103.575 16.8375 102.938 17.475C102.3 18.1125 101.513 18.4125 100.613 18.4125C99.675 18.4125 98.8875 18.075 98.25 17.475C97.6125 16.8375 97.3125 16.05 97.3125 15.1125C97.3125 14.175 97.6125 13.3875 98.25 12.75C98.8875 12.1125 99.675 11.8125 100.613 11.8125Z" fill="#170426"/>
<path d="M112.163 14.7375C111.638 14.55 111.113 14.4 110.588 14.2875C110.063 14.175 109.65 13.9875 109.275 13.7625C108.938 13.575 108.75 13.275 108.75 12.9375C108.75 12.5625 108.9 12.2625 109.2 12.075C109.5 11.85 109.913 11.775 110.363 11.775C111.338 11.775 111.975 12.15 112.313 12.9375L112.35 13.05L113.925 12.1875L113.888 12.1125C113.588 11.475 113.1 10.9875 112.5 10.6125C111.9 10.275 111.188 10.0875 110.4 10.0875C109.425 10.0875 108.6 10.35 107.925 10.9125C107.25 11.475 106.913 12.1875 106.913 13.0125C106.913 13.6875 107.1 14.2125 107.475 14.625C107.85 15.0375 108.3 15.3375 108.863 15.525C109.388 15.7125 109.913 15.8625 110.438 16.0125C110.963 16.125 111.375 16.3125 111.75 16.5375C112.088 16.7625 112.275 17.025 112.275 17.3625C112.275 17.775 112.125 18.075 111.788 18.2625C111.45 18.45 111 18.5625 110.475 18.5625C109.913 18.5625 109.425 18.45 109.013 18.1875C108.6 17.925 108.338 17.5875 108.188 17.1375L108.15 17.025L106.538 17.925L106.575 18C106.875 18.675 107.363 19.2375 108.038 19.65C108.713 20.0625 109.538 20.2875 110.475 20.2875C111.525 20.2875 112.425 20.025 113.1 19.5C113.775 18.975 114.15 18.225 114.15 17.3625C114.15 16.6875 113.963 16.125 113.588 15.7125C113.138 15.1875 112.688 14.8875 112.163 14.7375Z" fill="#170426"/>
<path d="M116.625 17.5125C116.25 17.5125 115.95 17.625 115.688 17.8875C115.425 18.15 115.312 18.45 115.312 18.825C115.312 19.2 115.425 19.5 115.688 19.7625C115.95 20.025 116.25 20.1375 116.625 20.1375C117 20.1375 117.338 19.9875 117.562 19.7625C117.825 19.5 117.938 19.2 117.938 18.825C117.938 18.45 117.825 18.15 117.562 17.8875C117.3 17.6625 117 17.5125 116.625 17.5125Z" fill="#170426"/>
<path d="M127.05 11.7C126.225 10.575 125.025 10.0125 123.525 10.0125C122.175 10.0125 121.012 10.5 120.037 11.5125C119.1 12.4875 118.612 13.725 118.612 15.15C118.612 16.575 119.1 17.775 120.037 18.7875C120.975 19.7625 122.175 20.2875 123.525 20.2875C125.025 20.2875 126.187 19.725 127.05 18.6V20.025H128.887V10.275H127.05V11.7ZM123.75 18.45C122.812 18.45 122.025 18.1125 121.425 17.5125C120.787 16.875 120.487 16.0875 120.487 15.15C120.487 14.2125 120.787 13.425 121.425 12.7875C122.062 12.15 122.85 11.85 123.75 11.85C124.687 11.85 125.475 12.1875 126.112 12.7875C126.75 13.425 127.05 14.2125 127.05 15.15C127.05 16.0875 126.75 16.875 126.112 17.5125C125.475 18.1125 124.687 18.45 123.75 18.45Z" fill="#170426"/>
<path d="M132.863 10.275H131.025V19.9875H132.863V10.275Z" fill="#170426"/>
<path d="M131.962 8.69999C132.3 8.69999 132.562 8.58749 132.825 8.36249C133.05 8.13749 133.162 7.83749 133.162 7.49999C133.162 7.16249 133.05 6.89999 132.825 6.63749C132.6 6.41249 132.3 6.26249 131.962 6.26249C131.625 6.26249 131.325 6.37499 131.1 6.63749C130.875 6.86249 130.763 7.16249 130.763 7.49999C130.763 7.83749 130.875 8.09999 131.1 8.36249C131.325 8.58749 131.625 8.69999 131.962 8.69999Z" fill="#170426"/>
<path d="M18.975 0.524975V5.66248C18.975 5.84998 18.8625 6.03747 18.7125 6.11247L0 16.4625V10.425C0 10.2 0.1125 10.0125 0.3 9.89997L18.1125 0.0749751C18.4875 -0.150025 18.975 0.112475 18.975 0.524975Z" fill="url(#paint0_linear_1_37)"/>
<path d="M11.1375 17.0625L1.05 10.7625C1.05 10.7625 0.5625 10.5 0.525 10.2C0.525 9.89997 0.7875 9.67497 0.7875 9.67497C0.7875 9.67497 0.4875 9.86247 0.3 9.93747C0.1125 10.05 0.0375 10.2 0.0375 10.2C0 10.275 0 10.35 0 10.425V17.2125C0 17.4 0.1125 17.5875 0.2625 17.6625L5.325 20.8125C5.5125 20.925 5.7375 20.925 5.9625 20.8125L11.1375 17.9625C11.475 17.775 11.475 17.2875 11.1375 17.0625Z" fill="#FF0055"/>
<path d="M5.625 29.475V24.3375C5.625 24.15 5.7375 23.9625 5.8875 23.8875L24.6 13.5375V19.575C24.6 19.8 24.4875 19.9875 24.3 20.1L6.4875 29.925C6.1125 30.15 5.625 29.8875 5.625 29.475Z" fill="url(#paint1_linear_1_37)"/>
<path d="M13.4624 12.9375L23.5499 19.275C23.5499 19.275 24.0374 19.5375 24.0749 19.8375C24.0749 20.1375 23.8124 20.3625 23.8124 20.3625C23.8124 20.3625 24.1124 20.175 24.2999 20.1C24.4874 19.9875 24.5624 19.8375 24.5624 19.8375C24.5999 19.7625 24.5999 19.6875 24.5999 19.6125V12.825C24.5999 12.6375 24.4874 12.45 24.3374 12.375L19.2749 9.225C19.0874 9.1125 18.8624 9.1125 18.6374 9.225L13.4999 12.0375C13.1999 12.1875 13.1624 12.7125 13.4624 12.9375Z" fill="#FF0055"/>
</g>
<defs>
<linearGradient id="paint0_linear_1_37" x1="17.5227" y1="3.57785" x2="-3.80228" y2="15.3975" gradientUnits="userSpaceOnUse">
<stop offset="0.2181" stop-color="#E0004B"/>
<stop offset="0.5398" stop-color="#DF024B"/>
<stop offset="0.7254" stop-color="#DB0B4B"/>
<stop offset="0.8759" stop-color="#D5194C"/>
<stop offset="1" stop-color="#CC2B4D"/>
</linearGradient>
<linearGradient id="paint1_linear_1_37" x1="7.09076" y1="26.422" x2="28.4158" y2="14.6024" gradientUnits="userSpaceOnUse">
<stop offset="0.2181" stop-color="#E0004B"/>
<stop offset="0.5398" stop-color="#DF024B"/>
<stop offset="0.7254" stop-color="#DB0B4B"/>
<stop offset="0.8759" stop-color="#D5194C"/>
<stop offset="1" stop-color="#CC2B4D"/>
</linearGradient>
<clipPath id="clip0_1_37">
<rect width="133.162" height="30" fill="white"/>
</clipPath>
</defs>
</svg>
